<svg width="48" height="48" viewBox="0 0 48 48" fill="none" xmlns="http://www.w3.org/2000/svg">
<rect width="48" height="48" rx="8" fill="#0060FF" fill-opacity="0.5"/>
<path d="M20.1236 14.9853C19.0715 14.0186 17.4543 14.0186 16.4022 14.9853C16.3591 15.0249 16.3131 15.0709 16.2534 15.1306L15.3559 16.0281C14.4528 16.9313 14.0737 18.2332 14.3507 19.48C15.9227 26.5538 21.4472 32.0784 28.5211 33.6503C29.7679 33.9274 31.0698 33.5483 31.9729 32.6451L32.8703 31.7477C32.9301 31.688 32.9761 31.6419 33.0158 31.5988C33.9825 30.5468 33.9825 28.9296 33.0158 27.8775C32.9761 27.8344 32.9301 27.7884 32.8703 27.7286L31.4011 26.2594C30.381 25.2393 28.8404 24.9475 27.518 25.524C26.7609 25.854 25.8789 25.687 25.2949 25.1029L22.8981 22.7061C22.3141 22.1221 22.1471 21.2402 22.4771 20.4831C23.0536 19.1606 22.7618 17.6201 21.7417 16.6L20.2724 15.1307C20.2126 15.0709 20.1666 15.0249 20.1236 14.9853Z" fill="white"/>
</svg>
