<svg width="44" height="44" viewBox="0 0 44 44" fill="none" xmlns="http://www.w3.org/2000/svg">
<rect width="44" height="44" rx="8" fill="#0060FF"/>
<path d="M27.7071 23.7071L30.3552 26.3552C30.7113 26.7113 30.7113 27.2887 30.3552 27.6448C28.43 29.57 25.3821 29.7866 23.204 28.153L21.6286 26.9714C19.885 25.6638 18.3362 24.115 17.0286 22.3714L15.847 20.796C14.2134 18.6179 14.43 15.57 16.3552 13.6448C16.7113 13.2887 17.2887 13.2887 17.6448 13.6448L20.2929 16.2929C20.6834 16.6834 20.6834 17.3166 20.2929 17.7071L19.2717 18.7283C19.1095 18.8905 19.0692 19.1385 19.1719 19.3437C20.3585 21.7171 22.2829 23.6415 24.6563 24.8281C24.8615 24.9308 25.1095 24.8905 25.2717 24.7283L26.2929 23.7071C26.6834 23.3166 27.3166 23.3166 27.7071 23.7071Z" fill="#D9D9D9" stroke="white"/>
</svg>
