<svg width="48" height="48" viewBox="0 0 48 48" fill="none" xmlns="http://www.w3.org/2000/svg">
<rect width="48" height="48" rx="8" fill="#0060FF" fill-opacity="0.5"/>
<path fill-rule="evenodd" clip-rule="evenodd" d="M26.7808 32.1976C29.0905 29.2522 32 24.973 32 22.1058C32 17.3513 28.4183 13.4971 24 13.4971C19.5817 13.4971 16 17.3513 16 22.1058C16 24.973 18.9095 29.2522 21.2192 32.1976C22.4242 33.7342 23.0268 34.5025 24 34.5025C24.9732 34.5025 25.5758 33.7342 26.7808 32.1976ZM24 25.4971C22.3431 25.4971 21 24.1539 21 22.4971C21 20.8402 22.3431 19.4971 24 19.4971C25.6569 19.4971 27 20.8402 27 22.4971C27 24.1539 25.6569 25.4971 24 25.4971Z" fill="white"/>
</svg>
