<svg width="48" height="48" viewBox="0 0 48 48" fill="none" xmlns="http://www.w3.org/2000/svg">
<rect width="48" height="48" rx="8" fill="#0060FF" fill-opacity="0.5"/>
<path d="M15.7787 19.77C15.5907 20.5356 15.4534 21.5242 15.2624 22.8995C14.8262 26.0399 14.6082 27.6101 15.0877 28.8297C15.5087 29.9003 16.2859 30.793 17.2885 31.3573C18.4305 32 20.0157 32 23.1863 32H24.8105C27.9811 32 29.5664 32 30.7084 31.3573C31.7109 30.793 32.4882 29.9003 32.9092 28.8297C33.3887 27.6101 33.1707 26.0399 32.7345 22.8995C32.527 21.4058 32.3829 20.3683 32.1685 19.5773L31.438 20.3077C29.8058 21.94 28.5266 23.2192 27.3943 24.0831C26.2354 24.9673 25.1427 25.4868 23.8772 25.4868C22.6118 25.4868 21.519 24.9673 20.3601 24.0831C19.2278 23.2192 17.9487 21.94 16.3164 20.3077L15.7787 19.77Z" fill="white"/>
<path d="M16.3911 18.2611L17.3365 19.2065C19.0181 20.8881 20.2271 22.0949 21.27 22.8905C22.2955 23.673 23.0716 23.9868 23.8772 23.9868C24.6828 23.9868 25.4589 23.673 26.4845 22.8905C27.5273 22.0949 28.7363 20.8881 30.4179 19.2065L31.5076 18.1168C30.9997 17.397 30.3096 16.8231 29.5063 16.4548C28.5141 16 27.2796 16 24.8105 16H23.1864C20.7173 16 19.4828 16 18.4906 16.4548C17.6343 16.8474 16.9067 17.4737 16.3911 18.2611Z" fill="white"/>
</svg>
