<svg width="44" height="47" viewBox="0 0 44 47" fill="none" xmlns="http://www.w3.org/2000/svg">
<path d="M8.55231 8.86949L5.50391 11.9177L34.3777 40.7915L37.3554 37.8175L8.55231 8.86949Z" fill="#BF864C"/>
<path d="M8.77975 9.09728C3.47394 12.786 0 18.9255 0 25.8772C0 37.157 9.14423 46.3013 20.4241 46.3013C27.3759 46.3013 33.5153 42.8273 37.204 37.5215L8.77975 9.09728Z" fill="#A56F3F"/>
<path d="M20.4249 46.3013C27.3768 46.3013 33.5161 42.8273 37.2048 37.5215L31.0817 31.3982C22.4378 37.6264 10.8011 39.3944 1.99219 34.6834C5.28116 41.5549 12.2985 46.3013 20.4249 46.3013Z" fill="#91623C"/>
<path d="M38.6946 16.7382C34.5471 16.7382 31.1611 13.4782 30.9586 9.38083C30.6932 9.41441 30.4236 9.4336 30.1489 9.4336C27.3288 9.4336 24.9358 7.61068 24.0797 5.0793C23.2278 6.2482 21.849 7.00844 20.2919 7.00844C18.226 7.00844 16.4737 5.67061 15.8506 3.8146C8.4014 6.86119 3.15234 14.1797 3.15234 22.7253C3.15234 34.0052 12.2966 43.1494 23.5764 43.1494C34.8565 43.1494 44.0005 34.0052 44.0005 22.7253C44.0005 20.2219 43.5493 17.8242 42.7251 15.6077C41.5509 16.3247 40.1712 16.7382 38.6946 16.7382Z" fill="#F2BF8C"/>
<path d="M23.1431 23.5931C16.3277 15.2606 14.1941 8.35008 13.5266 4.9453C12.5472 5.50005 11.6164 6.13091 10.7461 6.83423C19.1157 12.5636 20.7374 40.5534 43.2612 28.1795C43.7414 26.4432 43.999 24.6143 43.999 22.7252C43.999 22.5425 43.996 22.3605 43.991 22.179C38.8436 26.4038 29.7625 31.6864 23.1431 23.5931Z" fill="#FFCFA4"/>
<path d="M13.5339 9.98632C12.8012 9.98632 12.207 10.5805 12.207 11.3132C12.207 12.0462 12.8012 12.6401 13.5339 12.6401C14.2667 12.6401 14.8608 12.0462 14.8608 11.3132C14.8608 10.5805 14.2667 9.98632 13.5339 9.98632Z" fill="#F2BF8C"/>
<path d="M10.3308 14.0093C9.59804 14.0093 9.00391 14.6034 9.00391 15.3362C9.00391 16.0691 9.59804 16.6631 10.3308 16.6631C11.0636 16.6631 11.6577 16.0691 11.6577 15.3362C11.6577 14.6034 11.0636 14.0093 10.3308 14.0093Z" fill="#DEA667"/>
<path d="M23.1291 28.7316C22.2422 28.7316 21.5234 29.4507 21.5234 30.3375C21.5234 31.2245 22.2422 31.9434 23.1291 31.9434C24.0159 31.9434 24.735 31.2245 24.735 30.3375C24.735 29.4507 24.0159 28.7316 23.1291 28.7316Z" fill="#DEA667"/>
<path d="M17.8469 16.4775C18.0709 16.4775 18.2526 16.2959 18.2526 16.072C18.2526 15.848 18.0709 15.6663 17.8469 15.6663C17.6229 15.6663 17.4414 15.848 17.4414 16.072C17.4414 16.2959 17.6229 16.4775 17.8469 16.4775Z" fill="#F2BF8C"/>
<path d="M17.6321 31.2598C15.7987 31.2598 14.3125 32.746 14.3125 34.5793C14.3125 36.4127 15.7987 37.8989 17.6321 37.8989C19.4656 37.8989 20.9518 36.4127 20.9518 34.5793C20.9518 32.746 19.4656 31.2598 17.6321 31.2598Z" fill="#DEA667"/>
<path d="M39.464 30.6239C38.5023 30.6239 37.7227 31.4035 37.7227 32.3651C37.7227 33.3268 38.5023 34.1064 39.464 34.1064C40.4256 34.1064 41.2052 33.3268 41.2052 32.3651C41.2052 31.4035 40.4256 30.6239 39.464 30.6239Z" fill="#DEA667"/>
<path d="M33.3441 18.8313C33.3441 18.2854 32.9016 17.8429 32.3556 17.8429C31.8096 17.8429 31.3672 18.2854 31.3672 18.8313C31.3672 19.3772 31.8096 19.8198 32.3556 19.8198C32.9016 19.8198 33.3441 19.3772 33.3441 18.8313Z" fill="#DEA667"/>
<path d="M20.1729 9.86032C20.1729 9.41129 19.8089 9.04747 19.3599 9.04747C18.911 9.04747 18.5469 9.41129 18.5469 9.86032C18.5469 10.3094 18.911 10.6733 19.3599 10.6733C19.8089 10.6733 20.1729 10.3094 20.1729 9.86032Z" fill="#DEA667"/>
<path d="M33.388 26.6661C32.8177 26.6661 32.3555 27.1286 32.3555 27.6989C32.3555 28.2692 32.8177 28.7314 33.388 28.7314C33.9585 28.7314 34.4209 28.2692 34.4209 27.6989C34.4209 27.1286 33.9585 26.6661 33.388 26.6661Z" fill="#F2BF8C"/>
<path d="M26.9529 36.6446C15.6729 36.6446 6.52884 27.5004 6.52884 16.2205C6.52884 14.1358 6.84319 12.1253 7.42359 10.2309C4.74761 13.6847 3.15234 18.0178 3.15234 22.7253C3.15234 34.0052 12.2966 43.1494 23.5764 43.1494C32.7706 43.1494 40.5451 37.0739 43.1061 28.7187C39.3703 33.5403 33.5244 36.6446 26.9529 36.6446Z" fill="#DEA667"/>
<path d="M27.6492 15.3361C27.6492 13.4061 26.0846 11.8416 24.1546 11.8416C22.2247 11.8416 20.6602 13.4061 20.6602 15.3361C20.6602 17.2661 22.2247 18.8306 24.1546 18.8306C26.0846 18.8306 27.6492 17.2661 27.6492 15.3361Z" fill="#DEA667"/>
<path d="M13.1572 18.5657C10.0178 18.5657 7.47266 21.1106 7.47266 24.2501C7.47266 27.3896 10.0178 29.9346 13.1572 29.9346C16.2966 29.9346 18.8417 27.3896 18.8417 24.2501C18.8417 21.1106 16.2966 18.5657 13.1572 18.5657Z" fill="#DEA667"/>
<path d="M26.0742 24.4005C26.0742 25.3805 26.8685 26.1748 27.8485 26.1748C28.8286 26.1748 29.6229 25.3805 29.6229 24.4005C29.6229 23.4206 28.8286 22.6261 27.8485 22.6261C26.8685 22.6261 26.0742 23.4206 26.0742 24.4005Z" fill="#DEA667"/>
<path d="M29.5012 32.5123C26.7173 32.5123 24.4609 34.7687 24.4609 37.5525C24.4609 40.336 26.7173 42.5928 29.5012 42.5928C32.2847 42.5928 34.5411 40.336 34.5411 37.5525C34.5411 34.7687 32.2847 32.5123 29.5012 32.5123Z" fill="#DEA667"/>
<path d="M38.2337 19.3793C36.5643 19.3793 35.2109 20.7328 35.2109 22.4024C35.2109 24.0719 36.5643 25.4253 38.2337 25.4253C39.9034 25.4253 41.2568 24.0719 41.2568 22.4024C41.2568 20.7328 39.9034 19.3793 38.2337 19.3793Z" fill="#DEA667"/>
<path d="M28.3446 14.6423C28.3446 12.7123 26.7801 11.1476 24.8501 11.1476C22.9201 11.1476 21.3555 12.7123 21.3555 14.6423C21.3555 16.5722 22.9201 18.1367 24.8501 18.1367C26.7801 18.1367 28.3446 16.5722 28.3446 14.6423Z" fill="#A56F3F"/>
<path d="M13.8486 17.8723C10.709 17.8723 8.16406 20.4175 8.16406 23.5569C8.16406 26.6963 10.709 29.2412 13.8486 29.2412C16.988 29.2412 19.5329 26.6963 19.5329 23.5569C19.5329 20.4175 16.988 17.8723 13.8486 17.8723Z" fill="#A56F3F"/>
<path d="M26.7656 23.707C26.7656 24.687 27.5601 25.4814 28.5402 25.4814C29.52 25.4814 30.3145 24.687 30.3145 23.707C30.3145 22.727 29.52 21.9327 28.5402 21.9327C27.5601 21.9327 26.7656 22.727 26.7656 23.707Z" fill="#A56F3F"/>
<path d="M15.8359 34.3839C15.8359 35.4628 16.7105 36.3374 17.7892 36.3374C18.868 36.3374 19.7425 35.4628 19.7425 34.3839C19.7425 33.3054 18.868 32.4308 17.7892 32.4308C16.7105 32.4308 15.8359 33.3054 15.8359 34.3839Z" fill="#A56F3F"/>
<path d="M30.1926 31.8184C27.4089 31.8184 25.1523 34.075 25.1523 36.8587C25.1523 39.6424 27.4089 41.8989 30.1926 41.8989C32.9761 41.8989 35.2329 39.6424 35.2329 36.8587C35.2329 34.075 32.9761 31.8184 30.1926 31.8184Z" fill="#A56F3F"/>
<path d="M39.4616 31.2398C39.0728 31.2398 38.7578 31.555 38.7578 31.9436C38.7578 32.3323 39.0728 32.6475 39.4616 32.6475C39.8503 32.6475 40.1653 32.3323 40.1653 31.9436C40.1653 31.555 39.8503 31.2398 39.4616 31.2398Z" fill="#A56F3F"/>
<path d="M9.00535 30.5358C8.34223 30.5358 7.80469 31.0734 7.80469 31.7363C7.80469 32.3995 8.34223 32.937 9.00535 32.937C9.66848 32.937 10.206 32.3995 10.206 31.7363C10.206 31.0734 9.66848 30.5358 9.00535 30.5358Z" fill="#A56F3F"/>
<path d="M4.10412 16.096C3.63027 16.096 3.24609 16.4801 3.24609 16.954C3.24609 17.4278 3.63027 17.812 4.10412 17.812C4.57813 17.812 4.96214 17.4278 4.96214 16.954C4.96214 16.4801 4.57813 16.096 4.10412 16.096Z" fill="#A56F3F"/>
<path d="M38.9293 18.6854C37.2596 18.6854 35.9062 20.0388 35.9062 21.7084C35.9062 23.3779 37.2596 24.7314 38.9293 24.7314C40.5989 24.7314 41.9523 23.3779 41.9523 21.7084C41.9523 20.0388 40.5989 18.6854 38.9293 18.6854Z" fill="#A56F3F"/>
<path d="M28.6961 14.2902C28.6961 12.3602 27.1315 10.7957 25.2015 10.7957C23.2715 10.7957 21.707 12.3602 21.707 14.2902C21.707 16.2202 23.2715 17.7847 25.2015 17.7847C27.1315 17.7847 28.6961 16.2202 28.6961 14.2902Z" fill="#603E26"/>
<path d="M14.204 17.52C11.0646 17.52 8.51953 20.0649 8.51953 23.2043C8.51953 26.3439 11.0646 28.8887 14.204 28.8887C17.3435 28.8887 19.8886 26.3439 19.8886 23.2043C19.8886 20.0649 17.3435 17.52 14.204 17.52Z" fill="#603E26"/>
<path d="M27.1172 23.3545C27.1172 24.3346 27.9117 25.1289 28.8916 25.1289C29.8716 25.1289 30.6659 24.3346 30.6659 23.3545C30.6659 22.3745 29.8716 21.5802 28.8916 21.5802C27.9117 21.5802 27.1172 22.3745 27.1172 23.3545Z" fill="#603E26"/>
<path d="M30.2287 31.5746C28.0227 31.5746 26.2344 33.3628 26.2344 35.5687C26.2344 37.7746 28.0227 39.563 30.2287 39.563C32.4346 39.563 34.2228 37.7746 34.2228 35.5687C34.2228 33.3628 32.4346 31.5746 30.2287 31.5746Z" fill="#603E26"/>
<path d="M39.1831 18.4336C37.5134 18.4336 36.1602 19.787 36.1602 21.4566C36.1602 23.1261 37.5134 24.4795 39.1831 24.4795C40.8526 24.4795 42.206 23.1261 42.206 21.4566C42.206 19.787 40.8526 18.4336 39.1831 18.4336Z" fill="#603E26"/>
<path d="M25.5984 16.8558C23.6684 16.8558 22.1039 15.2913 22.1039 13.3614C22.1039 13.0523 22.1481 12.7542 22.2234 12.4688C21.898 12.9997 21.707 13.622 21.707 14.2902C21.707 16.2202 23.2715 17.7847 25.2015 17.7847C26.8224 17.7847 28.1816 16.6796 28.5765 15.1828C27.9622 16.1851 26.8601 16.8558 25.5984 16.8558Z" fill="#442D1D"/>
<path d="M14.601 27.96C11.4614 27.96 8.91644 25.4149 8.91644 22.2755C8.91644 21.6597 9.01555 21.0674 9.19672 20.512C8.76489 21.3134 8.51953 22.2302 8.51953 23.2043C8.51953 26.3439 11.0645 28.8887 14.2039 28.8887C16.7275 28.8887 18.8658 27.2438 19.6081 24.968C18.6482 26.7492 16.766 27.96 14.601 27.96Z" fill="#442D1D"/>
<path d="M29.0927 24.4006C28.1127 24.4006 27.3184 23.6061 27.3184 22.6261C27.3184 22.5921 27.3214 22.559 27.3233 22.5254C27.1921 22.7731 27.1172 23.0548 27.1172 23.3545C27.1172 24.3346 27.9117 25.1289 28.8916 25.1289C29.8375 25.1289 30.6085 24.388 30.661 23.4552C30.3631 24.0173 29.773 24.4006 29.0927 24.4006Z" fill="#442D1D"/>
<path d="M30.6256 38.6342C28.4196 38.6342 26.6315 36.8458 26.6315 34.6399C26.6315 34.2612 26.6852 33.895 26.7837 33.5479C26.4351 34.1409 26.2344 34.8311 26.2344 35.5687C26.2344 37.7746 28.0227 39.563 30.2287 39.563C32.0557 39.563 33.5951 38.3357 34.0704 36.6608C33.3763 37.8413 32.0939 38.6342 30.6256 38.6342Z" fill="#442D1D"/>
<path d="M39.58 23.5507C37.9104 23.5507 36.5571 22.1973 36.5571 20.5277C36.5571 20.2835 36.5892 20.0473 36.6439 19.8199C36.339 20.292 36.1602 20.8528 36.1602 21.4566C36.1602 23.1261 37.5134 24.4795 39.1831 24.4795C40.6084 24.4795 41.8003 23.4918 42.1193 22.1642C41.5809 22.9977 40.646 23.5507 39.58 23.5507Z" fill="#442D1D"/>
<path d="M39.1821 18.8928C38.2854 18.8928 37.5586 19.3701 37.5586 19.9586C37.5586 20.5471 38.2854 21.0244 39.1821 21.0244C40.0787 21.0244 40.8057 20.5471 40.8057 19.9586C40.8057 19.3701 40.0787 18.8928 39.1821 18.8928Z" fill="#9B5B2F"/>
<path d="M25.2017 11.3133C24.2102 11.3133 23.4062 11.841 23.4062 12.4919C23.4062 13.143 24.2102 13.6704 25.2017 13.6704C26.1934 13.6704 26.9972 13.143 26.9972 12.4919C26.9972 11.841 26.1934 11.3133 25.2017 11.3133Z" fill="#9B5B2F"/>
<path d="M28.8907 21.8777C28.153 21.8777 27.5547 22.2705 27.5547 22.7548C27.5547 23.2391 28.153 23.6318 28.8907 23.6318C29.6286 23.6318 30.2267 23.2391 30.2267 22.7548C30.2267 22.2705 29.6286 21.8777 28.8907 21.8777Z" fill="#9B5B2F"/>
<path d="M16.1992 34.1071C16.1992 35.0869 16.9937 35.8813 17.9737 35.8813C18.9536 35.8813 19.7481 35.0869 19.7481 34.1071C19.7481 33.1271 18.9536 32.3326 17.9737 32.3326C16.9937 32.3326 16.1992 33.1271 16.1992 34.1071Z" fill="#603E26"/>
<path d="M18.1747 35.153C17.1947 35.153 16.4002 34.3585 16.4002 33.3786C16.4002 33.3445 16.4036 33.3114 16.4054 33.2778C16.2743 33.5255 16.1992 33.8073 16.1992 34.1071C16.1992 35.0869 16.9937 35.8813 17.9737 35.8813C18.9195 35.8813 19.6905 35.1406 19.743 34.2077C19.4452 34.7697 18.855 35.153 18.1747 35.153Z" fill="#442D1D"/>
<path d="M17.9727 32.63C17.2348 32.63 16.6367 33.0226 16.6367 33.5069C16.6367 33.9912 17.2348 34.3838 17.9727 34.3838C18.7106 34.3838 19.3087 33.9912 19.3087 33.5069C19.3087 33.0226 18.7106 32.63 17.9727 32.63Z" fill="#9B5B2F"/>
<path d="M14.203 18.1545C12.309 18.1545 10.7734 19.1624 10.7734 20.406C10.7734 21.6493 12.309 22.6572 14.203 22.6572C16.0971 22.6572 17.6326 21.6493 17.6326 20.406C17.6326 19.1624 16.0971 18.1545 14.203 18.1545Z" fill="#9B5B2F"/>
<path d="M30.2297 32.0003C28.7286 32.0003 27.5117 32.7989 27.5117 33.7843C27.5117 34.7696 28.7286 35.5684 30.2297 35.5684C31.7307 35.5684 32.9476 34.7696 32.9476 33.7843C32.9476 32.7989 31.7307 32.0003 30.2297 32.0003Z" fill="#9B5B2F"/>
<path d="M39.9388 10.2307C39.9388 11.8427 38.6321 13.1494 37.0203 13.1494C35.4083 13.1494 34.1016 11.8427 34.1016 10.2307C34.1016 8.61891 35.4083 7.31219 37.0203 7.31219C38.6321 7.31219 39.9388 8.61891 39.9388 10.2307Z" fill="#DEA667"/>
<path d="M39.1606 9.29554C39.1606 10.2811 38.2021 11.0801 37.0198 11.0801C35.8374 11.0801 34.8789 10.2811 34.8789 9.29554C34.8789 8.31012 35.8374 7.511 37.0198 7.511C38.2021 7.511 39.1606 8.31012 39.1606 9.29554Z" fill="#F3BE8C"/>
<path d="M35.8205 2.4725C35.8205 3.83812 34.7134 4.94531 33.3478 4.94531C31.9822 4.94531 30.875 3.83812 30.875 2.4725C30.875 1.10688 31.9822 -0.000144005 33.3478 -0.000144005C34.7134 -0.000144005 35.8205 1.10688 35.8205 2.4725Z" fill="#DEA667"/>
<path d="M35.1589 1.68002C35.1589 2.51504 34.3467 3.19189 33.3451 3.19189C32.3433 3.19189 31.5312 2.51504 31.5312 1.68002C31.5312 0.84516 32.3433 0.168303 33.3451 0.168303C34.3467 0.168303 35.1589 0.84516 35.1589 1.68002Z" fill="#F3BE8C"/>
<path d="M22.7557 3.25359C22.7557 4.0274 22.1283 4.65479 21.3543 4.65479C20.5805 4.65479 19.9531 4.0274 19.9531 3.25359C19.9531 2.47962 20.5805 1.8524 21.3543 1.8524C22.1283 1.8524 22.7557 2.47962 22.7557 3.25359Z" fill="#DEA667"/>
<path d="M22.3838 2.8046C22.3838 3.27762 21.9236 3.66113 21.3559 3.66113C20.7882 3.66113 20.3281 3.27762 20.3281 2.8046C20.3281 2.33141 20.7882 1.94774 21.3559 1.94774C21.9236 1.94774 22.3838 2.33141 22.3838 2.8046Z" fill="#F3BE8C"/>
</svg>
