<svg width="48" height="48" viewBox="0 0 48 48" fill="none" xmlns="http://www.w3.org/2000/svg">
<circle cx="24" cy="24" r="24" fill="#0060FF"/>
<path d="M24 16L23.6464 15.6464L24 15.2929L24.3536 15.6464L24 16ZM24.5 31C24.5 31.2761 24.2761 31.5 24 31.5C23.7239 31.5 23.5 31.2761 23.5 31L24.5 31ZM17.6464 21.6464L23.6464 15.6464L24.3536 16.3536L18.3536 22.3536L17.6464 21.6464ZM24.3536 15.6464L30.3536 21.6464L29.6464 22.3536L23.6464 16.3536L24.3536 15.6464ZM24.5 16L24.5 31L23.5 31L23.5 16L24.5 16Z" fill="white"/>
</svg>
